# xmcd
#
# Track frame offsets: 
#        150
#        15837
#        23675
#        39780
#        52957
#        61665
#        75972
#        91025
#        105135
#        124297
#        138877
#        153282
#        165567
#
# Disc length: 2388 seconds
#
# Revision: 2
# Processed by: cddbd v1.5.2PL0 Copyright (c) Steve Scherf et al.
# Submitted via: ExactAudioCopy v0.99pb4
#
DISCID=7709520d
DTITLE=Various Artist - BACK Back In The Saddle Again - American Cowboy Songs
DTITLE=[CD1]
DYEAR=1983
DGENRE=Folk
TTITLE0=Harry "Haywire Mac" McClintock - The Old Chisholm Trail
TTITLE1=Harry Jackson - The Pot Wrassler
TTITLE2=Van Holyoak - The Gol-Durned Wheel
TTITLE3=Carl T.Sprague - When The Work's All DOne This Fall
TTITLE4=John G. Prude - Streets Of Laredo
TTITLE5=Marc Williams - Sioux Indians
TTITLE6=Jules Verne Allen - The Dying Cowbow
TTITLE7=Powder River Jack And Kitty Lee - Tying A Knot In The Devil's 
TTITLE7=Tail
TTITLE8=Arizona Wranglers - Strawberry Roan
TTITLE9=Ken Maynard - The Lone Star Trail
TTITLE10=Glen Rice and His Beverly Hill Billies - Ridge Runnin' Raon
TTITLE11=John White - Whoopie-Ti-Yi-Yo
TTITLE12=Jimmie Rodgers - Cowhand's Last Ride
EXTD=American Cowboy Songs
EXTT0=
EXTT1=
EXTT2=
EXTT3=
EXTT4=
EXTT5=
EXTT6=
EXTT7=
EXTT8=
EXTT9=
EXTT10=
EXTT11=
EXTT12=
PLAYORDER=
